<?xml version="1.0" encoding="UTF-8" standalone="no"?>
<svg width="984px" height="404px" viewBox="0 0 984 404" version="1.1" xmlns="http://www.w3.org/2000/svg" xmlns:xlink="http://www.w3.org/1999/xlink" xmlns:sketch="http://www.bohemiancoding.com/sketch/ns">
    <!-- Generator: Sketch 3.5 (25232) - http://www.bohemiancoding.com/sketch -->
    <title>Logo 1</title>
    <desc>Created with Sketch.</desc>
    <defs></defs>
    <g id="Logo" stroke="none" stroke-width="1" fill="none" fill-rule="evenodd" sketch:type="MSPage">
        <g id="Logo-1" sketch:type="MSLayerGroup" transform="translate(0.000000, -92.000000)" fill="#84DCC6">
            <g id="Group-2" transform="translate(0.000000, 169.000000)" sketch:type="MSShapeGroup">
                <g id="noun_25411_cc" transform="translate(96.425529, 66.066853) rotate(-270.000000) translate(-96.425529, -66.066853) translate(30.573948, -30.238124)">
                    <g id="Group" transform="translate(0.000000, -0.000000)">
                        <g id="Shape">
                            <path d="M130.132409,142.904154 C130.132409,142.467317 130.133723,142.067969 130.136074,141.702522 C130.167161,136.870146 130.379553,137.965442 130.132409,136.69093 C116.48968,136.69093 118.817771,141.348957 106.593073,123.769321 C77.9821588,82.6298518 50.8321229,68.655384 41.5982075,70.3356413 C31.6057221,72.1521356 60.0609446,92.2655287 63.3601659,117.163887 C43.1186202,104.460811 30.9564018,83.6206669 25.0384409,59.2466152 C19.1176911,34.8560499 15.1739047,-8.05451327 8.30494257,6.21322431 C4.07424198,14.9943232 1.01520097,17.5704546 3.98254799,48.5705824 C6.9582616,79.5418113 16.8224594,141.550324 56.6111248,164.417511 C96.3970013,187.268184 111.785996,192.609948 130.132409,192.609948 C131.580278,169.711424 130.132409,153.25282 130.132409,142.904154 Z"></path>
                        </g>
                    </g>
                </g>
                <g id="noun_25411_cc" transform="translate(96.425529, 205.899917) scale(1, -1) rotate(-270.000000) translate(-96.425529, -205.899917) translate(30.573948, 109.594940)">
                    <g id="Group" transform="translate(0.000000, -0.000000)">
                        <g id="Shape">
                            <path d="M130.132409,142.904154 C130.132409,142.467317 130.133723,142.067969 130.136074,141.702522 C130.167161,136.870146 130.379553,137.965442 130.132409,136.69093 C116.48968,136.69093 118.817771,141.348957 106.593073,123.769321 C77.9821588,82.6298518 50.8321229,68.655384 41.5982075,70.3356413 C31.6057221,72.1521356 60.0609446,92.2655287 63.3601659,117.163887 C43.1186202,104.460811 30.9564018,83.6206669 25.0384409,59.2466152 C19.1176911,34.8560499 15.1739047,-8.05451327 8.30494257,6.21322431 C4.07424198,14.9943232 1.01520097,17.5704546 3.98254799,48.5705824 C6.9582616,79.5418113 16.8224594,141.550324 56.6111248,164.417511 C96.3970013,187.268184 111.785996,192.609948 130.132409,192.609948 C131.580278,169.711424 130.132409,153.25282 130.132409,142.904154 Z"></path>
                        </g>
                    </g>
                </g>
            </g>
            <text id="arify" sketch:type="MSTextLayer" font-family="Avenir Next" font-size="400" font-weight="420" letter-spacing="1.10674167">
                <tspan x="193" y="400">arif</tspan>
                <tspan x="786.626967" y="400" letter-spacing="1.13511968">y</tspan>
            </text>
        </g>
    </g>
</svg>